<svg xmlns="http://www.w3.org/2000/svg" viewBox="0 0 355.11 184"><defs><style>.cls-1{fill:#036;fill-rule:evenodd;}.cls-2,.cls-3{fill:#fff;}.cls-3{font-size:26.03px;font-family:Humanist521BT-Italic, Humanst521 BT;font-style:italic;letter-spacing:0.1em;}.cls-4{letter-spacing:0.06em;}.cls-5{letter-spacing:0.03em;}</style></defs><title>Ativo 8</title><g id="Camada_2" data-name="Camada 2"><g id="Camada_1-2" data-name="Camada 1"><polygon class="cls-1" points="0 0 355.11 0 355.11 184 0 184 0 0 0 0"/><polygon class="cls-2" points="58.79 42.06 97.42 42.06 94.88 55.14 71.66 55.14 69.13 68.21 88.83 68.21 86.29 81.28 66.59 81.28 61.71 105.47 46.1 105.47 58.79 42.06 58.79 42.06"/><path class="cls-2" d="M126.1,79.33l-.2-7.41q-.2-4.58-.29-8.93t-.1-9.22h-.39q-2,4.68-3.66,9.12t-3.76,9l-3.32,7.41ZM126.49,91H109l-6.54,14.44H85.32l33.17-63.41h18.73l6,63.41H126.88L126.49,91Z"/><polygon class="cls-2" points="152.72 96.11 184.91 55.14 161.5 55.14 164.04 42.06 206.18 42.06 204.23 51.43 172.43 92.4 198.18 92.4 195.45 105.47 150.77 105.47 152.72 96.11 152.72 96.11"/><path class="cls-2" d="M230.29,106.64a27.48,27.48,0,0,1-10.15-1.8,21.27,21.27,0,0,1-7.8-5.22,23.88,23.88,0,0,1-5-8.44,33.79,33.79,0,0,1-1.8-11.46,43.94,43.94,0,0,1,2.68-15.61,38.09,38.09,0,0,1,7.37-12.29,33.72,33.72,0,0,1,10.88-8,31,31,0,0,1,13.22-2.88,19.2,19.2,0,0,1,10,2.68A20.49,20.49,0,0,1,257,51.23l-10.54,8.19q-3.41-5.07-7.61-5.07a12.62,12.62,0,0,0-6.58,1.9,19,19,0,0,0-5.56,5.17,26.55,26.55,0,0,0-3.8,7.76,31.63,31.63,0,0,0-1.41,9.56q0,6.93,2.83,10.68t9.27,3.76a11,11,0,0,0,5-1.27,23.42,23.42,0,0,0,4.73-3.22l6.44,10a35.66,35.66,0,0,1-3.32,2.68,27.45,27.45,0,0,1-4.44,2.59,31.7,31.7,0,0,1-5.46,2,24.71,24.71,0,0,1-6.29.78Z"/><path class="cls-2" d="M279.53,106.64a26.82,26.82,0,0,1-10-1.8,21.35,21.35,0,0,1-7.76-5.22,23.88,23.88,0,0,1-5-8.44,33.79,33.79,0,0,1-1.8-11.46,44.08,44.08,0,0,1,2.78-16A39.66,39.66,0,0,1,265,51.43a31.87,31.87,0,0,1,10.44-7.8,28.83,28.83,0,0,1,12.24-2.73,26.82,26.82,0,0,1,10,1.8,21.36,21.36,0,0,1,7.76,5.22,23.88,23.88,0,0,1,5,8.44,33.79,33.79,0,0,1,1.8,11.46,44.08,44.08,0,0,1-2.78,16,39.66,39.66,0,0,1-7.32,12.24,31.72,31.72,0,0,1-10.49,7.8,28.94,28.94,0,0,1-12.19,2.73Zm.78-13.46a10.51,10.51,0,0,0,5.56-1.76,18.62,18.62,0,0,0,5.17-5,27.5,27.5,0,0,0,3.8-7.71,32,32,0,0,0,1.46-10q0-6.93-2.49-10.68a7.82,7.82,0,0,0-6.88-3.76,10.51,10.51,0,0,0-5.56,1.76,18.62,18.62,0,0,0-5.17,5,27.51,27.51,0,0,0-3.8,7.71,32,32,0,0,0-1.46,10q0,6.93,2.49,10.68a7.82,7.82,0,0,0,6.88,3.76Z"/><text class="cls-3" transform="translate(80.44 143.18)">PRI<tspan class="cls-4" x="39.75" y="0">V</tspan><tspan class="cls-5" x="54.81" y="0">A</tspan><tspan x="69.08" y="0">TE LABEL</tspan></text></g></g></svg>