<svg xmlns="http://www.w3.org/2000/svg" viewBox="0 0 295.78 84.84"><defs><style>.cls-1{fill:#fff;}</style></defs><title>esteio-wordmark-escuro_1</title><g id="Camada_2" data-name="Camada 2"><g id="Camada_1-2" data-name="Camada 1"><path class="cls-1" d="M290,6a19.71,19.71,0,0,1,5.8,14V64.86a19.71,19.71,0,0,1-5.8,14c-8,8-26.18,8-34.2,0a19.71,19.71,0,0,1-5.8-14V20a19.71,19.71,0,0,1,5.8-14c8-8,26.18-8,34.2,0Zm-25.73,8.47A7.76,7.76,0,0,0,262,20V64.86a7.76,7.76,0,0,0,2.29,5.5c3.32,3.32,13.95,3.32,17.27,0a7.76,7.76,0,0,0,2.29-5.5V20a7.76,7.76,0,0,0-2.29-5.5c-3.32-3.32-13.95-3.32-17.27,0Z"/><polygon class="cls-1" points="38.2 13.28 11.53 13.28 11.53 36.68 33.14 36.68 33.14 48.21 11.53 48.21 11.53 71.56 38.2 71.56 38.2 83.09 0 83.09 0 1.75 38.2 1.75 38.2 13.28 38.2 13.28"/><path class="cls-1" d="M87,28.13H99V20a19.71,19.71,0,0,0-5.8-14C85.19-2,67-2,59,6c-8.29,8.29-8.78,27.13,2.33,34.12,5.42,3.4,9.79,6.3,15.18,9.76l7,4.49c4.39,3.28,5.25,12,1.24,16-3.32,3.32-13.95,3.32-17.27,0a7.76,7.76,0,0,1-2.29-5.5V56.7h-12v8.16a19.71,19.71,0,0,0,5.8,14c8,8,26.18,8,34.2,0,8.64-8.64,8.53-27.12-2.59-33.68l-9.33-6L69.42,31.51c-5.37-3.45-6.11-12.87-1.94-17,3.32-3.32,13.95-3.32,17.27,0A7.76,7.76,0,0,1,87,20v8.16Z"/><polygon class="cls-1" points="110.53 1.75 158.69 1.75 158.69 13.28 140.38 13.28 140.38 83.09 128.84 83.09 128.84 13.28 110.53 13.28 110.53 1.75 110.53 1.75"/><polygon class="cls-1" points="208.41 13.28 181.75 13.28 181.75 36.68 203.36 36.68 203.36 48.21 181.75 48.21 181.75 71.56 208.41 71.56 208.41 83.09 170.22 83.09 170.22 1.75 208.41 1.75 208.41 13.28 208.41 13.28"/><polygon class="cls-1" points="234.96 1.75 234.96 83.09 223.43 83.09 223.43 1.75 234.96 1.75 234.96 1.75"/></g></g></svg>