<svg xmlns="http://www.w3.org/2000/svg" viewBox="0 0 399.27 120.39"><defs><style>.cls-1,.cls-2{fill:#8a3e05;}.cls-2{stroke:#8a3e05;stroke-miterlimit:22.93;stroke-width:0.22px;}</style></defs><title>esteio-logo-claro</title><g id="Camada_2" data-name="Camada 2"><g id="Camada_1-2" data-name="Camada 1"><path class="cls-1" d="M26,0H47.21a26.11,26.11,0,0,1,26,26v52.5a26.11,26.11,0,0,1-26,26H26a26.11,26.11,0,0,1-26-26V26A26.11,26.11,0,0,1,26,0ZM47.21,10.57H26A15.54,15.54,0,0,0,10.57,26v52.5A15.53,15.53,0,0,0,26,94H47.21A15.53,15.53,0,0,0,62.68,78.55V26A15.53,15.53,0,0,0,47.21,10.57Z"/><polygon class="cls-1" points="31.13 120.39 31.13 21.61 41.7 21.61 41.7 120.39 31.13 120.39 31.13 120.39"/><polygon class="cls-2" points="23.08 27.84 38.12 42.88 33.14 52.85 15.61 35.31 23.08 27.84 23.08 27.84"/><polygon class="cls-1" points="23 56.28 38.75 72.02 32.39 80.61 15.53 63.75 23 56.28 23 56.28"/><polygon class="cls-1" points="57.58 55.96 39.94 73.6 34.89 63.7 50.1 48.49 57.58 55.96 57.58 55.96"/><path d="M393.47,16.11a19.71,19.71,0,0,1,5.8,14V75a19.71,19.71,0,0,1-5.8,14c-8,8-26.18,8-34.2,0a19.71,19.71,0,0,1-5.8-14V30.07a19.71,19.71,0,0,1,5.8-14c8-8,26.18-8,34.2,0Zm-25.73,8.47a7.76,7.76,0,0,0-2.29,5.5V75a7.76,7.76,0,0,0,2.29,5.5c3.32,3.32,13.95,3.32,17.27,0a7.76,7.76,0,0,0,2.29-5.5V30.07a7.76,7.76,0,0,0-2.29-5.5c-3.32-3.32-13.95-3.32-17.27,0Z"/><polygon points="141.69 23.38 115.02 23.38 115.02 46.78 136.63 46.78 136.63 58.31 115.02 58.31 115.02 81.65 141.69 81.65 141.69 93.18 103.49 93.18 103.49 11.85 141.69 11.85 141.69 23.38 141.69 23.38"/><path d="M190.52,38.23h12V30.07a19.71,19.71,0,0,0-5.8-14c-8-8-26.18-8-34.2,0-8.29,8.29-8.78,27.13,2.33,34.12,5.42,3.4,9.79,6.3,15.18,9.76l7,4.49c4.39,3.28,5.25,12,1.24,16-3.32,3.32-13.95,3.32-17.27,0a7.76,7.76,0,0,1-2.29-5.5V66.8h-12V75a19.71,19.71,0,0,0,5.8,14c8,8,26.18,8,34.2,0,8.64-8.64,8.53-27.12-2.59-33.68l-9.33-6-11.87-7.63c-5.37-3.45-6.11-12.87-1.94-17,3.32-3.32,13.95-3.32,17.27,0a7.76,7.76,0,0,1,2.29,5.5v8.16Z"/><polygon points="214.02 11.85 262.18 11.85 262.18 23.38 243.86 23.38 243.86 93.18 232.33 93.18 232.33 23.38 214.02 23.38 214.02 11.85 214.02 11.85"/><polygon points="311.9 23.38 285.24 23.38 285.24 46.78 306.85 46.78 306.85 58.31 285.24 58.31 285.24 81.65 311.9 81.65 311.9 93.18 273.71 93.18 273.71 11.85 311.9 11.85 311.9 23.38 311.9 23.38"/><polygon points="338.45 11.85 338.45 93.18 326.92 93.18 326.92 11.85 338.45 11.85 338.45 11.85"/></g></g></svg>