<svg xmlns="http://www.w3.org/2000/svg" viewBox="0 0 73.26 120.39"><defs><style>.cls-1,.cls-2{fill:#8a3e05;}.cls-2{stroke:#8a3e05;stroke-miterlimit:22.93;stroke-width:0.22px;}</style></defs><title>esteio-isotipo-claro-e-escuro</title><g id="Camada_2" data-name="Camada 2"><g id="Camada_1-2" data-name="Camada 1"><path class="cls-1" d="M26,0H47.21a26.11,26.11,0,0,1,26,26v52.5a26.11,26.11,0,0,1-26,26H26a26.11,26.11,0,0,1-26-26V26A26.11,26.11,0,0,1,26,0ZM47.21,10.57H26A15.54,15.54,0,0,0,10.57,26v52.5A15.53,15.53,0,0,0,26,94H47.21A15.53,15.53,0,0,0,62.68,78.55V26A15.53,15.53,0,0,0,47.21,10.57Z"/><polygon class="cls-1" points="31.13 120.39 31.13 21.61 41.7 21.61 41.7 120.39 31.13 120.39 31.13 120.39"/><polygon class="cls-2" points="23.08 27.84 38.12 42.88 33.14 52.85 15.61 35.31 23.08 27.84 23.08 27.84"/><polygon class="cls-1" points="23 56.28 38.75 72.02 32.39 80.61 15.53 63.75 23 56.28 23 56.28"/><polygon class="cls-1" points="57.58 55.96 39.94 73.6 34.89 63.7 50.1 48.49 57.58 55.96 57.58 55.96"/></g></g></svg>